<svg width="18" height="18" viewBox="0 0 18 18" fill="none" xmlns="http://www.w3.org/2000/svg">
<path fill-rule="evenodd" clip-rule="evenodd" d="M2.79337 1.25713C2.40284 0.866602 1.76968 0.866602 1.37915 1.25713L1.257 1.37928C0.86648 1.7698 0.866481 2.40296 1.257 2.79349L7.46353 9.00001L1.25701 15.2065C0.866481 15.5971 0.86648 16.2302 1.257 16.6207L1.37915 16.7429C1.76968 17.1334 2.40284 17.1334 2.79337 16.7429L8.99989 10.5364L15.2064 16.7429C15.5969 17.1334 16.2301 17.1334 16.6206 16.7429L16.7428 16.6207C17.1333 16.2302 17.1333 15.5971 16.7428 15.2065L10.5362 9.00001L16.7428 2.79349C17.1333 2.40296 17.1333 1.7698 16.7428 1.37928L16.6206 1.25713C16.2301 0.866602 15.5969 0.866602 15.2064 1.25713L8.99989 7.46365L2.79337 1.25713Z" fill="white"/>
</svg>
