<svg width="8" height="11" viewBox="0 0 8 11" fill="none" xmlns="http://www.w3.org/2000/svg">
<path fill-rule="evenodd" clip-rule="evenodd" d="M6.50001 0.500015L4.00001 3.00001L1.50001 0.500015C1.22387 0.223872 0.776157 0.223872 0.500015 0.500014C0.223872 0.776157 0.223872 1.22387 0.500014 1.50001L3.29291 4.29291C3.68343 4.68343 4.3166 4.68343 4.70712 4.29291L7.50001 1.50001C7.77616 1.22387 7.77616 0.776157 7.50001 0.500014C7.22387 0.223872 6.77616 0.223872 6.50001 0.500015ZM6.50001 6.50001L4.00001 9.00001L1.50001 6.50001C1.22387 6.22387 0.776157 6.22387 0.500015 6.50001C0.223872 6.77616 0.223872 7.22387 0.500014 7.50001L3.29291 10.2929C3.68343 10.6834 4.3166 10.6834 4.70712 10.2929L7.50001 7.50001C7.77616 7.22387 7.77616 6.77616 7.50001 6.50001C7.22387 6.22387 6.77616 6.22387 6.50001 6.50001Z" fill="white"/>
</svg>
