<svg width="8" height="11" viewBox="0 0 8 11" fill="none" xmlns="http://www.w3.org/2000/svg">
<path fill-rule="evenodd" clip-rule="evenodd" d="M6.49995 0.500015L3.99995 3.00001L1.49995 0.500015C1.22381 0.223872 0.776096 0.223872 0.499954 0.500014C0.223811 0.776157 0.223811 1.22387 0.499953 1.50001L3.29285 4.29291C3.68337 4.68343 4.31654 4.68343 4.70706 4.29291L7.49995 1.50001C7.7761 1.22387 7.7761 0.776157 7.49995 0.500014C7.22381 0.223872 6.7761 0.223872 6.49995 0.500015ZM6.49995 6.50001L3.99995 9.00001L1.49995 6.50001C1.22381 6.22387 0.776096 6.22387 0.499954 6.50001C0.223811 6.77616 0.223811 7.22387 0.499953 7.50001L3.29285 10.2929C3.68337 10.6834 4.31654 10.6834 4.70706 10.2929L7.49995 7.50001C7.7761 7.22387 7.7761 6.77616 7.49995 6.50001C7.22381 6.22387 6.7761 6.22387 6.49995 6.50001Z" fill="#41F6D7"/>
</svg>
